<svg width="18" height="22" viewBox="0 0 18 22" fill="none" xmlns="http://www.w3.org/2000/svg">
<path d="M0.75 8.893C0.75 4.396 4.332 0.75 8.75 0.75C13.168 0.75 16.75 4.396 16.75 8.893C16.75 13.355 14.197 18.563 10.213 20.424C9.75508 20.6384 9.25563 20.7496 8.75 20.7496C8.24437 20.7496 7.74492 20.6384 7.287 20.424C3.303 18.562 0.75 13.356 0.75 8.894V8.893Z" stroke="black" stroke-width="1.5"/>
<path d="M8.75 11.75C10.4069 11.75 11.75 10.4069 11.75 8.75C11.75 7.09315 10.4069 5.75 8.75 5.75C7.09315 5.75 5.75 7.09315 5.75 8.75C5.75 10.4069 7.09315 11.75 8.75 11.75Z" stroke="black" stroke-width="1.5"/>
</svg>
