<svg width="4" height="8" viewBox="0 0 4 8" fill="none" xmlns="http://www.w3.org/2000/svg">
<path d="M3.94727 7.49236C3.94715 7.35979 3.89439 7.2327 3.8006 7.13902L1.24327 4.58169C1.16586 4.5043 1.10446 4.41243 1.06256 4.31131C1.02067 4.21019 0.99911 4.10181 0.99911 3.99236C0.99911 3.8829 1.02067 3.77452 1.06256 3.6734C1.10446 3.57228 1.16586 3.48041 1.24327 3.40302L3.79727 0.847356C3.88834 0.753055 3.93874 0.626754 3.9376 0.495655C3.93646 0.364557 3.88388 0.239151 3.79117 0.146447C3.69847 0.0537426 3.57306 0.00115811 3.44197 1.89013e-05C3.31087 -0.00112031 3.18457 0.0492769 3.09027 0.140356L0.536266 2.69402C0.192854 3.03811 -1.52588e-05 3.50439 -1.52588e-05 3.99052C-1.52588e-05 4.47666 0.192854 4.94294 0.536266 5.28702L3.0936 7.84436C3.16343 7.91423 3.25238 7.96185 3.34925 7.98122C3.44612 8.00058 3.54655 7.99082 3.63787 7.95316C3.72919 7.91551 3.80732 7.85164 3.86238 7.76963C3.91744 7.68762 3.94698 7.59114 3.94727 7.49236Z" fill="#4F46E5"/>
</svg>
